<?xml version="1.0" encoding="UTF-8"?>
<svg id="Layer_2" data-name="Layer 2" xmlns="http://www.w3.org/2000/svg" viewBox="0 0 512 512">
  <defs>
    <style>
      .cls-1 {
        fill: #010101;
      }

      .cls-2 {
        fill: #f04f23;
      }
    </style>
  </defs>
  <g id="Layer_1-2" data-name="Layer 1">
    <circle class="cls-2" cx="256" cy="256" r="256"/>
    <path class="cls-1" d="M228.46,66.06h69.84c1.4,.25,7.68,18.26,19.09,54.01l3.49,2.54h11.87c2.1,1.78,11.64,29.42,28.4,82.67l8.38,25.61-2.56,1.27h-27.24v1.27c0,4.56,2.33,7.1,7.22,7.61l7.22-1.27h1.16c3.49,2.03,14.43,34.49,33.29,97.88l-2.56,1.27c-2.79-.76-4.19-1.27-4.66-1.27-.7,0-1.16,.51-1.16,1.27l-8.38-1.27h-6.05c-1.63,.25-2.33,1.27-2.33,2.79,4.19,13.69,6.98,20.54,8.15,20.54h23.75c1.4,.25,2.33,1.27,2.33,2.79v1.27c0,1.78-.7,2.79-2.33,2.79h-26.07c-1.86,0-3.49-.51-4.66-1.27-1.4,1.01-3.03,1.27-4.89,1.27h-17.93l-8.15-1.27-1.16,2.79c.23,1.78,1.16,2.54,2.56,2.54h64.02c2.33,0,7.45,14.2,15.36,42.6v1.27h-88.93c-1.4,0-6.05-14.71-14.2-43.87h-2.33c-1.86,0-3.26-.25-4.66-1.27-1.4,.76-3.03,1.27-4.66,1.27s-2.56-.76-2.56-2.54c.7,0,1.16-.51,1.16-1.27,14.67-.76,4.19-1.27,10.94-1.27h-1.63c1.4,0,2.33-.76,2.33-2.54l-3.49-2.79h-23.75c-.93,0-3.26-3.8-6.98-11.66h-9.54v1.27c0,.76,.47,4.31,1.16,10.4h-10.71c-.93,0-3.49-3.8-8.15-11.66h-68.68c-4.66,0-7.22,3.55-8.15,10.4l2.33,1.27h20.02c1.63,.25,2.56,1.27,2.56,2.79v1.27l-15.36,50.46H91.11v-2.03l16.53-51.73-35.39-1.27c-1.63,0-2.56-.76-2.56-2.54,3.96-13.95,6.75-20.79,8.38-20.79h31.89c5.82,0,9.54-7.35,11.64-21.81,1.4,0,5.35-10.9,11.87-32.2l13.04-41.33v-1.27h-11.87c-1.63-8.11-1.86-10.9-.93-8.37-1.16-1.27,9.54-2.03,31.66-2.03,1.16-.25,7.45-17.75,18.86-52.74l16.53-53v-1.27h-6.05v-1.27c6.05-22.06,12.34-40.32,19.09-55.53l14.67-.76Zm54.24,112.08c-8.61,36.01-14.43,54.01-17.93,54.01h-27.24c-1.63,0-2.79,2.54-3.49,7.86h7.22c4.66,.51,6.98,1.78,6.98,3.8-7.92,26.63-11.87,40.32-11.87,41.33l6.05,1.27,8.38-1.27c1.4,.76,2.79,1.27,3.49,1.27l7.22-1.27c.7,0,1.16,.51,1.16,1.27l6.05-1.27h20.02c.7,0,1.16,.51,1.16,1.27,7.92-.76,11.87-2.03,11.87-3.8v-1.27c-3.03-5.83-6.52-16.99-10.71-33.47,0-4.56-3.49-7.1-10.71-7.61,0-2.28-.93-4.31-2.56-6.59,.47-1.78,1.16-2.79,2.56-2.79h20.02c-3.96-15.72-9.08-33.22-15.36-52.74h-2.33Z"/>
  </g>
</svg>