<?xml version="1.0" encoding="UTF-8"?>
<svg id="Layer_2" data-name="Layer 2" xmlns="http://www.w3.org/2000/svg" viewBox="0 0 512 512">
  <defs>
    <style>
      .cls-1 {
        fill: #f8951d;
      }
    </style>
  </defs>
  <g id="Layer_1-2" data-name="Layer 1">
    <circle class="cls-1" cx="256" cy="256" r="256"/>
    <path d="M461.6,373.04L258.91,66.77c-1.39-2.24-4.88-2.24-6.28,0L50.4,373.25c-1.39,2.24,.46,4.67,3.02,4.67H458.35c2.79,0,4.65-2.44,3.25-4.88h0ZM200.8,187.49l.7-.81c24.41-7.32,36.73-11.58,63.46-16.66-25.1,.61-34.17,2.44-56.95,6.71l44.4-67.47c1.39-2.24,4.88-2.24,6.28,0l44.63,67.88c-12.55,0-24.41,1.22-36.73,2.85-24.64,3.25-48.58,9.15-71.83,16.46l6.04-8.94Zm-18.13,27.64l.7-1.22c31.61-13.62,65.55-21.95,101.81-24.18,9.07-.61,18.13-.61,26.96,.41v.61l8.37,13.01c-13.95-3.25-28.13-3.25-42.54-1.63-35.1,3.86-68.11,11.99-99.95,25.81-1.86,.81-3.72,1.63-5.35,2.44l10-15.24Zm-27.89,54.87c7.67-9.15,17.9-15.65,28.59-21.34,25.8-14.02,53.93-22.36,83.45-27.44,13.48-2.24,27.2-4.06,40.91-2.03,6.28,.81,12.55,2.64,17.43,6.5,2.56,2.24,3.49,4.67,2.32,7.52-.93,2.64-2.56,4.47-3.95,6.91-6.28-6.5-16.27-10.36-23.24-9.15,10.23,4.47,11.85,11.38,4.42,18.9-3.25,3.25-11.85,8.33-16.27,10.77-12.55,6.5-20.69,10.16-34.63,13.21-15.81,3.86-24.41,3.25-31.85,2.24-3.72-.61-7.9-2.64-9.3-4.67-1.86-3.25,0-6.5,2.32-9.15,9.07-9.35,22.78-12.6,35.8-15.24-1.86,.81-2.32,1.22-3.49,1.63-5.81,2.44-11.62,5.28-16.04,10.16s-2.79,9.35,3.95,10.36c4.42,.61,9.76,.61,14.18,0,9.53-1.42,17.9-4.88,25.34-10.57,7.44-5.89,6.74-13.62-2.56-17.27-4.42-2.03-13.71-2.85-18.6-2.85-25.1,0-42.31,6.1-63.69,17.48-7.21,3.86-16.04,9.55-19.76,16.46-4.42,8.33,0,19.92,9.53,23.78-5.81-13.01,0-23.78,14.41-27.23v1.63c-.46,8.94,4.18,15.04,12.78,19.1,9.3,4.47,19.53,5.49,29.75,4.67,26.03-1.22,50.21-7.72,73.22-18.09,13.48-6.1,25.8-13.62,33.47-25.2,1.39-2.03,2.79-4.27,3.72-6.3l7.9,11.79c-4.42,4.47-9.53,8.74-15.11,12.4-15.57,10.97-33.24,18.7-51.84,25-32.31,10.36-65.32,17.27-99.95,14.84-10-.81-19.99-1.83-28.82-6.3-5.35-2.64-9.53-6.91-11.16-12.19-1.86-8.33,1.86-14.63,6.74-20.32h0Zm261.04,86.78H95.73c-2.79,0-4.65-2.64-3.02-4.67l12.78-19.31c4.65,4.67,10,6.5,18.6,10.16-2.32-1.63-9.53-6.71-15.57-14.84l16.5-25.2c3.02,5.89,7.44,11.38,12.78,16.26,12.32,10.97,25.34,17.88,42.07,22.15,25.34,6.3,41.38,5.89,60.2,5.08,8.14-.41,21.85-2.24,26.27-3.45-9.53-.41-25.8-2.03-34.87-2.85-9.07-1.22-10.46-1.22-19.29-3.05-3.72-.81-1.39-1.22,0-1.22,4.42,0,16.97-.81,21.15-1.63,13.02-2.03,18.6-2.64,31.61-5.08,39.28-7.32,75.08-20.93,107.16-42.88,.93-.61,1.39-.81,2.32-1.63l6.28,9.76c-32.54,24.59-72.29,36.18-115.29,42.68,19.53,3.05,68.11-2.85,96-11.18,11.16-3.25,21.39-7.72,31.61-12.8l25.8,39.02c1.63,2.03-.23,4.67-3.02,4.67h0Z"/>
  </g>
</svg>